<?xml version="1.0" encoding="UTF-8"?>
<svg id="Layer_1" data-name="Layer 1" xmlns="http://www.w3.org/2000/svg" viewBox="0 0 69.65 69.84">
  <defs>
    <style>
      .cls-1 {
        fill: #222;
        fill-rule: evenodd;
        stroke-width: 0px;
      }
    </style>
  </defs>
  <path class="cls-1" d="M0,0v69.84h69.65V0H0ZM34.83,65.9c-17.06,0-30.89-13.88-30.89-30.97S17.77,3.95,34.83,3.95s30.89,13.87,30.89,30.98-13.84,30.97-30.89,30.97Z"/>
  <g>
    <path class="cls-1" d="M32.91,35.79l-5.45-5.46-6.29,6.31v2.12l1.58-1.6,4.39,4.41-1.62,1.62,1.05,1.07,8.78-8.82v-2.11l-2.44,2.45ZM7.45,29.17h9.72v2.1h-1.62v6.8l5.63-3.14v5.76H7.45v-2.11h1.63v-7.3h-1.63v-2.1ZM48.41,29.17v2.1h1.63v7.3h-1.63v2.11h13.73v-5.76l-5.64,3.14v-6.8h1.63v-2.1h-9.72ZM26.65,22.63c1.91,0,3.46,1.54,3.46,3.46s-1.55,3.47-3.46,3.47-3.46-1.55-3.46-3.47,1.55-3.46,3.46-3.46"/>
    <path class="cls-1" d="M42.99,29.17h-9.26v2.11h1.62v7.3h-1.62v2.11h9.26c6.85,0,6.92-11.52,0-11.52ZM41.69,37.09h-.46v-4.34h.39c2.03,0,2.03,4.35.07,4.34Z"/>
  </g>
</svg>