<?xml version="1.0" encoding="UTF-8"?>
<svg id="Layer_1" data-name="Layer 1" xmlns="http://www.w3.org/2000/svg" xmlns:xlink="http://www.w3.org/1999/xlink" viewBox="0 0 191.54 28.44">
  <defs>
    <style>
      .cls-1 {
        mask: url(#mask);
      }

      .cls-2 {
        fill: #222;
        fill-rule: evenodd;
      }

      .cls-2, .cls-3 {
        stroke-width: 0px;
      }

      .cls-3 {
        fill: #fff;
      }
    </style>
    <mask id="mask" x="-.23" y="-20.94" width="192" height="70" maskUnits="userSpaceOnUse">
      <g id="mask0_1_165" data-name="mask0 1 165">
        <path class="cls-3" d="M-.23,49.06h192V-20.94H-.23V49.06Z"/>
      </g>
    </mask>
  </defs>
  <polygon class="cls-2" points="58.06 .54 57.53 2.02 52.94 2.02 52.94 14.71 51.39 18.99 48.37 27.35 42.4 27.35 34.88 6.76 29.22 6.76 29.22 27.35 22.79 27.35 22.79 6.76 17.52 6.76 17.52 .54 39.38 .54 45.35 17.17 51.39 .54 58.06 .54"/>
  <path class="cls-2" d="M141.93.54h-7.59l-2.72,10.11-1.47,5.47v9.83h-2.64l-.38,1.4h5.19l1.24-4.74h8.99l1.24,4.74h5.35l-7.21-26.81ZM134.88,17.72l3.18-11.89,3.17,11.89h-6.35ZM13.72,16.63C21.39,13.99,19.3.39,10.77.54H0v26.81h6.74v-9.94l5.82,9.94h7.36l-6.2-10.72ZM6.74,12.82v-6.92c7.21-.46,7.06,7.31,0,6.92Z"/>
  <path class="cls-2" d="M159.06,18.03v-5.75h11.86v9.33c-1.86,2.41-3.1,4.28-5.58,5.44-1.63.78-4.26,1.4-6.67,1.4-2.95,0-5.35-.54-7.21-1.63-1.86-1.17-3.02-2.64-4.03-4.82-1.01-2.25-1.24-4.82-1.24-7.69,0-3.03.39-5.75,1.55-7.93,1.09-2.25,2.71-3.89,4.88-5.05,1.71-.93,3.49-1.32,6.36-1.32s4.81.23,6.2.78c1.4.54,2.48,1.4,3.41,2.56.85,1.17,1.55,2.64,2.02,4.43l-6.51,1.48c-.31-1.09-.78-1.86-1.55-2.41-.7-.54-1.63-.93-2.71-1.09-2.25-.31-4.03.93-5.04,2.18-1.01,1.32-1.47,3.34-1.47,6.22s.47,5.52,1.47,6.84c1.01,1.25,2.48,1.94,4.26,1.94.85,0,1.7-.16,2.48-.47.77-.23,1.63-.7,2.64-1.4v-3.03h-5.12ZM180.46,6.61h-3.49v14.77h3.49c6.51,0,6.67-14.77,0-14.77ZM179.45.54h-8.53v26.89h8.53c15.97,0,16.28-26.89,0-26.89Z"/>
  <g class="cls-1">
    <g>
      <path class="cls-2" d="M51.39.54v26.81h80.23V.54H51.39ZM130.15,25.95H52.94V2.02h77.21v23.93Z"/>
      <path class="cls-2" d="M60.77,18.49v-4.04h8.76v-1.94h-8.76v-2.8h9.46v-2.72h-13.1v13.84h13.49v-2.34h-9.85ZM104.95,13.99c4.66-1.87,3.18-7-3.1-7h-9.61v13.84h4.27v-5.6h2.55c1.56,0,3.96-.08,3.96,1.86l.07,3.74h4.11s-.07-3.81-.07-3.81c0-1.48-1.01-2.65-2.18-3.03ZM102.79,12.74c-.47.23-1.32.39-2.41.39h-4.03v-3.57h4.27c1.93,0,2.94.62,2.94,1.78,0,.62-.31,1.09-.77,1.4ZM126.27,10.96c-.46-.86-1-1.64-1.78-2.26-.78-.62-1.71-1.09-2.79-1.4-1.01-.39-2.17-.54-3.41-.54s-2.4.15-3.49.54c-1.01.31-1.94.78-2.71,1.4-.78.62-1.4,1.4-1.78,2.26-.47.85-.7,1.86-.7,2.95s.23,2.02.7,2.87c.38.94,1,1.64,1.78,2.26.69.62,1.62,1.16,2.71,1.48,1.01.31,2.25.54,3.49.54s2.4-.24,3.49-.54c1-.32,1.93-.86,2.71-1.48.78-.62,1.39-1.4,1.78-2.26.47-.85.62-1.86.62-2.87,0-1.09-.23-2.02-.62-2.95ZM123.09,15.85c-.31.62-.62,1.09-1.08,1.48-.47.39-1.01.7-1.63.93-.7.23-1.39.31-2.09.31-.78,0-1.47-.08-2.09-.31-.62-.23-1.17-.54-1.63-.93-.47-.39-.86-.86-1.09-1.48-.23-.54-.39-1.24-.39-1.94,0-.78.16-1.4.39-1.95.23-.62.62-1.08,1.09-1.47.46-.39,1.01-.7,1.63-.93.69-.24,1.39-.32,2.09-.32.77,0,1.39.08,2.09.32.62.23,1.16.54,1.63.93.46.39.77.85,1.08,1.4.24.62.39,1.24.39,2.02,0,.7-.15,1.4-.39,1.94ZM84.88,6.99v9.79c.15,2.65-6.67,2.72-6.82,0V6.99h-3.49v10.03c.08,5.13,14.11,5.13,14.03,0l.08-10.03h-3.8ZM126.58,5.51c-.07-.15-.15-.23-.23-.31-.08-.07-.15-.15-.23-.15.23-.08.31-.16.46-.23.08-.08.08-.24.08-.39,0-.08,0-.24-.08-.31l-.23-.24h-1.4v2.1h.47v-.93h.08c.08,0,.15,0,.23.08,0,0,.08,0,.08.07.07,0,.15.16.23.31l.31.47h.54l-.31-.47ZM125.42,4.74v-.55h.62c.08,0,.16.08.16.08.07.08.07.16.07.23,0,0,0,.08-.07.16,0,0-.08,0-.08.08h-.7ZM126.35,5.2c-.08-.07-.15-.15-.23-.15.23-.08.31-.16.46-.23.08-.08.08-.24.08-.39,0-.08,0-.24-.08-.31l-.23-.24h-1.4v2.1h.47v-.93h.08c.08,0,.15,0,.23.08,0,0,.08,0,.08.07.07,0,.15.16.23.31l.31.47h.54l-.31-.47c-.07-.15-.15-.23-.23-.31ZM125.42,4.74v-.55h.62c.08,0,.16.08.16.08.07.08.07.16.07.23,0,0,0,.08-.07.16,0,0-.08,0-.08.08h-.7ZM125.73,3.03c-1.09,0-1.94.85-1.94,1.94s.85,1.94,1.94,1.94,1.94-.85,1.94-1.94-.85-1.94-1.94-1.94ZM125.73,6.6c-.93,0-1.63-.77-1.63-1.63,0-.93.7-1.71,1.63-1.71s1.63.78,1.63,1.71c0,.86-.7,1.63-1.63,1.63ZM126.58,5.51c-.07-.15-.15-.23-.23-.31-.08-.07-.15-.15-.23-.15.23-.08.31-.16.46-.23.08-.08.08-.24.08-.39,0-.08,0-.24-.08-.31l-.23-.24h-1.4v2.1h.47v-.93h.08c.08,0,.15,0,.23.08,0,0,.08,0,.08.07.07,0,.15.16.23.31l.31.47h.54l-.31-.47ZM125.42,4.74v-.55h.62c.08,0,.16.08.16.08.07.08.07.16.07.23,0,0,0,.08-.07.16,0,0-.08,0-.08.08h-.7ZM126.58,5.51c-.07-.15-.15-.23-.23-.31-.08-.07-.15-.15-.23-.15.23-.08.31-.16.46-.23.08-.08.08-.24.08-.39,0-.08,0-.24-.08-.31l-.23-.24h-1.4v2.1h.47v-.93h.08c.08,0,.15,0,.23.08,0,0,.08,0,.08.07.07,0,.15.16.23.31l.31.47h.54l-.31-.47ZM125.42,4.74v-.55h.62c.08,0,.16.08.16.08.07.08.07.16.07.23,0,0,0,.08-.07.16,0,0-.08,0-.08.08h-.7ZM126.58,5.51c-.07-.15-.15-.23-.23-.31-.08-.07-.15-.15-.23-.15.23-.08.31-.16.46-.23.08-.08.08-.24.08-.39,0-.08,0-.24-.08-.31l-.23-.24h-1.4v2.1h.47v-.93h.08c.08,0,.15,0,.23.08,0,0,.08,0,.08.07.07,0,.15.16.23.31l.31.47h.54l-.31-.47ZM125.42,4.74v-.55h.62c.08,0,.16.08.16.08.07.08.07.16.07.23,0,0,0,.08-.07.16,0,0-.08,0-.08.08h-.7Z"/>
    </g>
  </g>
</svg>