<?xml version="1.0" encoding="UTF-8"?>
<svg id="Layer_1" data-name="Layer 1" xmlns="http://www.w3.org/2000/svg" viewBox="0 0 117.23 75.41">
  <defs>
    <style>
      .cls-1 {
        fill: none;
        stroke: #212121;
        stroke-miterlimit: 10;
        stroke-width: 2.67px;
      }

      .cls-2 {
        fill: #212121;
        fill-rule: evenodd;
        stroke-width: 0px;
      }
    </style>
  </defs>
  <path class="cls-2" d="M31.3,25.19c.98-1.24,1.65-2.9,1.47-4.6-1.44.07-3.19.96-4.2,2.2-.91,1.06-1.72,2.79-1.51,4.42,1.61.14,3.22-.81,4.24-2.02h0ZM32.75,27.53c-2.34-.14-4.33,1.34-5.45,1.34s-2.83-1.27-4.68-1.24c-2.41.04-4.65,1.41-5.87,3.6-2.52,4.38-.66,10.87,1.78,14.43,1.19,1.76,2.62,3.71,4.51,3.64,1.78-.07,2.48-1.17,4.65-1.17s2.8,1.16,4.68,1.13c1.96-.03,3.18-1.76,4.37-3.53,1.36-2.01,1.92-3.95,1.96-4.06-.03-.03-3.77-1.48-3.81-5.82-.04-3.63,2.93-5.36,3.07-5.47-1.68-2.5-4.3-2.79-5.21-2.86h0ZM50.33,36.59h4.67c3.55,0,5.56-1.93,5.56-5.26s-2.02-5.25-5.54-5.25h-4.69v10.51h0ZM56.1,22.61c5.09,0,8.63,3.54,8.63,8.69s-3.62,8.73-8.76,8.73h-5.63v9.04h-4.07v-26.47h9.83,0ZM78.1,41.89v-1.49l-4.53.29c-2.54.17-3.87,1.12-3.87,2.79s1.38,2.66,3.54,2.66c2.76,0,4.85-1.78,4.85-4.26h0ZM65.74,43.59c0-3.39,2.56-5.34,7.29-5.63l5.07-.31v-1.47c0-2.15-1.4-3.32-3.89-3.32-2.05,0-3.54,1.06-3.85,2.7h-3.67c.11-3.43,3.31-5.92,7.64-5.92,4.65,0,7.69,2.46,7.69,6.27v13.17h-3.76v-3.17h-.09c-1.07,2.07-3.44,3.38-6,3.38-3.78,0-6.42-2.28-6.42-5.69h0ZM85.47,56.16v-3.17c.25.04.87.07,1.2.07,1.8,0,2.82-.77,3.43-2.75l.36-1.17-6.89-19.26h4.25l4.8,15.63h.09l4.8-15.63h4.15l-7.14,20.23c-1.64,4.64-3.51,6.16-7.47,6.16-.31,0-1.31-.04-1.58-.11Z"/>
  <rect class="cls-1" x="1.34" y="1.34" width="114.56" height="72.74" rx="6.9" ry="6.9"/>
</svg>