<?xml version="1.0" encoding="UTF-8"?>
<svg id="Layer_1" data-name="Layer 1" xmlns="http://www.w3.org/2000/svg" viewBox="0 0 117.72 75.8">
  <defs>
    <style>
      .cls-1 {
        fill: none;
        stroke: #212121;
        stroke-miterlimit: 10;
        stroke-width: 2.68px;
      }

      .cls-2 {
        fill: #2d2d2d;
      }

      .cls-2, .cls-3, .cls-4, .cls-5 {
        stroke-width: 0px;
      }

      .cls-3 {
        fill: #444;
      }

      .cls-4 {
        fill: #212121;
      }

      .cls-5 {
        fill: #333;
      }
    </style>
  </defs>
  <path class="cls-4" d="M43.35,37.14c0-1.07-.09-2.14-.26-3.18h-14.62v6.04h8.38c-.35,1.94-1.46,3.69-3.1,4.78v3.93h5c2.93-2.73,4.61-6.76,4.61-11.56h0Z"/>
  <path class="cls-2" d="M28.47,52.5c4.18,0,7.71-1.4,10.27-3.79l-5-3.92c-1.4.96-3.19,1.5-5.27,1.5-4.05,0-7.47-2.77-8.7-6.48h-5.15v4.06c2.63,5.3,7.99,8.64,13.85,8.64Z"/>
  <path class="cls-5" d="M19.77,39.8c-.65-1.94-.65-4.06,0-6.02v-4.03h-5.15c-2.22,4.43-2.22,9.66,0,14.09l5.15-4.03Z"/>
  <path class="cls-3" d="M28.47,27.31c2.22-.04,4.35.81,5.94,2.36l4.44-4.49c-2.82-2.66-6.52-4.12-10.38-4.08-5.86,0-11.22,3.36-13.84,8.66l5.15,4.06c1.23-3.73,4.65-6.5,8.7-6.5h0Z"/>
  <path class="cls-4" d="M55.93,39.76v10.92h-3.42v-26.96h9.06c2.19-.04,4.31.8,5.86,2.35,3.1,2.92,3.29,7.85.38,11.01l-.38.39c-1.59,1.53-3.55,2.3-5.86,2.3h-5.65ZM55.93,27.03v9.42h5.73c1.27.04,2.51-.47,3.38-1.4,1.78-1.87,1.74-4.88-.11-6.69-.87-.86-2.04-1.33-3.27-1.33h-5.73ZM77.77,31.63c2.53,0,4.52.69,5.99,2.04,1.47,1.36,2.19,3.25,2.19,5.63v11.37h-3.27v-2.56h-.15c-1.42,2.11-3.29,3.16-5.65,3.16-2,0-3.69-.6-5.03-1.81-1.32-1.12-2.06-2.77-2.02-4.52,0-1.91.72-3.42,2.14-4.56,1.42-1.14,3.33-1.7,5.71-1.7,2.04,0,3.69.39,5.01,1.12v-.79c0-1.18-.51-2.3-1.4-3.07-.91-.82-2.08-1.27-3.29-1.27-1.91,0-3.42.82-4.52,2.45l-3.01-1.91c1.61-2.39,4.05-3.59,7.3-3.59ZM73.35,45.03c0,.9.42,1.74,1.13,2.26.76.6,1.7.93,2.65.9,1.44,0,2.82-.58,3.84-1.61,1.13-1.07,1.7-2.34,1.7-3.8-1.06-.86-2.55-1.29-4.46-1.27-1.38,0-2.55.34-3.48,1.01-.91.67-1.38,1.5-1.38,2.52ZM104.71,32.23l-11.42,26.55h-3.52l4.25-9.29-7.49-17.27h3.71l5.41,13.24h.06l5.28-13.24h3.72Z"/>
  <rect class="cls-1" x="1.34" y="1.58" width="114.48" height="72.88" rx="6.91" ry="6.91"/>
</svg>