<?xml version="1.0" encoding="UTF-8"?>
<svg id="Layer_1" data-name="Layer 1" xmlns="http://www.w3.org/2000/svg" viewBox="0 0 373.5 373.5">
  <defs>
    <style>
      .cls-1 {
        fill: #212121;
        stroke-width: 0px;
      }
    </style>
  </defs>
  <path class="cls-1" d="M186.75,0C83.61,0,0,83.61,0,186.75s83.61,186.75,186.75,186.75,186.75-83.61,186.75-186.75S289.89,0,186.75,0ZM187.26,347.94c-88.88,0-160.94-72.06-160.94-160.94S98.38,26.06,187.26,26.06s160.94,72.06,160.94,160.94-72.06,160.94-160.94,160.94Z"/>
  <path class="cls-1" d="M128.5,124.93v135.09c0,9.5,10.3,15.42,18.51,10.64l115.95-67.52c8.15-4.75,8.16-16.53,0-21.28l-115.95-67.57c-8.21-4.78-18.51,1.14-18.51,10.64Z"/>
</svg>