<?xml version="1.0" encoding="utf-8"?>
<!-- Generator: Adobe Illustrator 28.1.0, SVG Export Plug-In . SVG Version: 6.00 Build 0)  -->
<svg version="1.1" id="Layer_1" xmlns="http://www.w3.org/2000/svg" xmlns:xlink="http://www.w3.org/1999/xlink" x="0px" y="0px"
	 viewBox="0 0 222.1 223.8" style="enable-background:new 0 0 222.1 223.8;" xml:space="preserve">
<style type="text/css">
	.st0{fill:none;stroke:#FFFFFF;stroke-width:17;stroke-linecap:round;stroke-linejoin:round;}
	.st1{fill:#FFFFFF;}
</style>
<path class="st0" d="M189.4,156.6c-88,39-153-66-100-124C-99.6,92.6,88.4,321.6,189.4,156.6z"/>
<path class="st1" d="M219.4,35.9l-11.7,4.6c-2.8,1.1-5.1,3.3-6.3,6l-6.8,15.5c-1.4,3.3-6.1,3.3-7.5,0l-6-13.7
	c-1.7-3.9-4.9-6.9-8.8-8.5l-10.1-4c-3.5-1.4-3.5-6.3,0-7.6l9.5-3.7c4.4-1.7,7.9-5.1,9.8-9.4L187,2.4c1.5-3.3,6.2-3.2,7.5,0.1
	l5.4,13.4c1.5,3.7,4.5,6.7,8.3,8.1l11.2,4.2C222.9,29.6,222.9,34.5,219.4,35.9z"/>
<path class="st1" d="M155.1,73.8l-7.4,2.9c-1.8,0.7-3.2,2.1-4,3.8l-4.3,9.8c-0.9,2.1-3.8,2.1-4.7,0l-3.8-8.7
	c-1.1-2.4-3.1-4.4-5.6-5.3l-6.4-2.5c-2.2-0.9-2.2-3.9,0-4.8l6-2.3c2.8-1.1,5-3.2,6.2-5.9l3.5-8c0.9-2.1,3.9-2,4.8,0.1l3.4,8.4
	c0.9,2.3,2.8,4.2,5.2,5.1l7.1,2.7C157.3,69.8,157.3,72.9,155.1,73.8L155.1,73.8z"/>
<path class="st1" d="M184.5,106.7l-5.5,2.2c-1.3,0.5-2.4,1.6-3,2.9l-3.3,7.3c-0.7,1.5-2.9,1.6-3.5,0l-2.8-6.5
	c-0.8-1.8-2.3-3.2-4.1-4l-4.8-1.8c-1.6-0.6-1.6-2.9,0-3.6l4.5-1.8c2.1-0.8,3.7-2.4,4.6-4.4l2.7-6c0.7-1.6,2.9-1.6,3.6,0l2.5,6.3
	c0.7,1.8,2.1,3.1,3.9,3.8l5.3,1.9C186.1,103.7,186.1,106.1,184.5,106.7L184.5,106.7z"/>
</svg>
