<?xml version="1.0" encoding="UTF-8"?>
<svg id="Layer_1" data-name="Layer 1" xmlns="http://www.w3.org/2000/svg" viewBox="0 0 299.49 299.48">
  <defs>
    <style>
      .cls-1 {
        fill: none;
        stroke: #fff;
        stroke-miterlimit: 10;
        stroke-width: 8px;
      }
    </style>
  </defs>
  <path class="cls-1" d="M295.48,149.74c0,95.19-91.27,169.07-191.07,138.9-39.32-11.88-81.68-54.25-93.58-93.58C-19.33,95.27,54.55,4,149.74,4c1.71,0,3.41.03,5.11.09.76.03,1.53.06,2.28.1,4.71.23,9.2,2.4,11.98,6.21,1.88,2.57,2.97,5.72,2.97,9.14,0,2.15-.44,4.2-1.22,6.05-3.05,7.2-11.53,10.3-18.8,7.41-1.65-.66-3.67-1.35-5.91-1.89-3.25-.8-6.95-1.26-10.64-.84-.88.1-1.02,1.34-.19,1.64,4.45,1.64,7.62,5.92,7.62,10.94,0,3.94-1.94,7.41-4.93,9.52-1.14.81-2.49,1.25-3.87,1.49-1.13.18-2.24.4-3.35.63-52.54,10.84-88.94,65.88-68.6,124.54,9.03,26.04,29.91,46.35,56.09,54.93,59.72,19.6,115.25-19.34,123.64-73.81.58-3.77-2.06-7.65-5.79-8.42-19.37-4.07-33.92-21.26-33.92-41.84,0-11.99,4.94-22.82,12.89-30.59,7.7-7.53,18.24-12.16,29.86-12.16,10.31,0,19.76,3.64,27.14,9.72,5.46,4.5,9.54,10.42,12.27,16.94.57,1.36,1.12,2.74,1.64,4.12,0,0,0,.02,0,.02,6.11,16.09,9.46,33.54,9.46,51.78v.02Z"/>
  <circle class="cls-1" cx="203.74" cy="23.74" r="16"/>
</svg>