<?xml version="1.0" encoding="UTF-8"?>
<svg id="Layer_1" data-name="Layer 1" xmlns="http://www.w3.org/2000/svg" viewBox="0 0 301 301">
  <defs>
    <style>
      .cls-1 {
        fill: #212121;
        stroke: #212121;
        stroke-miterlimit: 10;
      }
    </style>
  </defs>
  <path class="cls-1" d="M300.5,150.5c0,97.97-93.94,174.01-196.65,142.96-40.47-12.23-84.07-55.84-96.31-96.31C-23.51,94.44,52.53.5,150.5.5c1.76,0,3.51.03,5.26.09.78.03,1.57.06,2.35.1,4.85.24,9.47,2.47,12.33,6.39,1.93,2.64,3.06,5.89,3.06,9.41,0,2.21-.45,4.32-1.26,6.23-3.14,7.41-11.87,10.6-19.35,7.63-1.7-.68-3.78-1.39-6.08-1.95-3.34-.82-7.15-1.3-10.95-.86-.91.1-1.05,1.38-.2,1.69,4.58,1.69,7.84,6.09,7.84,11.26,0,4.05-2,7.63-5.07,9.8-1.17.83-2.56,1.29-3.98,1.53-1.16.19-2.31.41-3.45.65-54.08,11.16-91.54,67.81-70.6,128.18,9.29,26.8,30.78,47.7,57.73,56.54,61.46,20.17,118.62-19.9,127.25-75.97.6-3.88-2.12-7.87-5.96-8.67-19.94-4.19-34.91-21.88-34.91-43.06,0-12.34,5.08-23.49,13.27-31.48,7.92-7.75,18.77-12.52,30.73-12.52,10.61,0,20.34,3.75,27.93,10,5.62,4.63,9.82,10.72,12.63,17.44.59,1.4,1.15,2.82,1.69,4.24.01.01.01.02.01.02,6.29,16.56,9.74,34.52,9.74,53.29Z"/>
  <circle class="cls-1" cx="204.5" cy="24.5" r="16"/>
</svg>