<svg width="234" height="23" viewBox="0 0 234 23" fill="none" xmlns="http://www.w3.org/2000/svg">
<path fill-rule="evenodd" clip-rule="evenodd" d="M38.45 14.245C38.611 14.385 38.699 14.591 38.69 14.805C38.69 15.408 38.34 15.709 37.644 15.709H31.65C31.19 15.737 30.792 15.386 30.765 14.925C30.763 14.897 30.763 14.868 30.764 14.839C30.764 14.529 30.892 14.235 31.117 14.024L36.065 8.7H32.235C31.985 8.717 31.736 8.645 31.535 8.495C31.371 8.35 31.283 8.138 31.295 7.919C31.295 7.328 31.643 7.032 32.341 7.032H38.069C38.311 7.02 38.548 7.114 38.716 7.289C38.872 7.454 38.958 7.674 38.955 7.902C38.949 8.214 38.821 8.513 38.601 8.735L33.671 14.041H37.749C37.999 14.024 38.249 14.096 38.45 14.245ZM41.615 10.58H45.658C45.711 9.995 45.547 9.41 45.197 8.94C44.857 8.557 44.36 8.352 43.849 8.381C42.596 8.381 41.852 9.114 41.615 10.581V10.58ZM47.335 11.565C47.195 11.702 47.005 11.777 46.811 11.769H41.545C41.53 12.425 41.767 13.06 42.208 13.544C42.681 13.97 43.304 14.187 43.938 14.148C44.318 14.153 44.698 14.102 45.064 13.998C45.416 13.889 45.753 13.738 46.066 13.544C46.201 13.466 46.353 13.424 46.509 13.42C46.692 13.412 46.869 13.495 46.979 13.642C47.094 13.799 47.154 13.989 47.147 14.183C47.149 14.523 46.983 14.842 46.704 15.035C46.319 15.303 45.89 15.502 45.436 15.621C44.902 15.775 44.351 15.853 43.796 15.851C42.991 15.87 42.194 15.69 41.473 15.328C40.827 14.996 40.294 14.479 39.939 13.846C39.567 13.161 39.38 12.389 39.399 11.609C39.384 10.753 39.573 9.905 39.948 9.135C40.291 8.432 40.826 7.842 41.491 7.431C42.175 7.017 42.961 6.804 43.761 6.818C44.805 6.754 45.825 7.149 46.554 7.901C47.259 8.769 47.611 9.871 47.538 10.989C47.552 11.201 47.476 11.409 47.334 11.565H47.335ZM56.46 7.608C57.005 8.258 57.275 9.096 57.215 9.942C57.215 10.166 57.208 10.338 57.195 10.457L56.841 14.751C56.833 15.049 56.705 15.33 56.486 15.531C56.261 15.726 55.968 15.827 55.671 15.816C55.378 15.834 55.09 15.731 54.872 15.532C54.677 15.322 54.585 15.035 54.625 14.751L54.98 10.546C55.074 9.232 54.554 8.576 53.42 8.576C52.85 8.544 52.295 8.757 51.894 9.161C51.501 9.616 51.276 10.192 51.256 10.794L50.919 14.751C50.911 15.049 50.783 15.33 50.564 15.531C50.339 15.726 50.046 15.827 49.749 15.816C49.459 15.835 49.171 15.732 48.959 15.532C48.769 15.319 48.675 15.035 48.702 14.751L49.27 7.865C49.271 7.58 49.402 7.309 49.624 7.129C49.861 6.942 50.157 6.845 50.458 6.854C50.733 6.838 51.001 6.934 51.203 7.12C51.384 7.31 51.463 7.573 51.416 7.83L51.397 8.167C51.699 7.737 52.108 7.394 52.586 7.173C53.107 6.932 53.677 6.81 54.253 6.819C55.067 6.76 55.868 7.047 56.46 7.609V7.608ZM21.568 6.574C20.664 5.18 18.86 4.682 17.369 5.414C15.777 6.224 15.142 8.171 15.949 9.764C16.41 10.672 17.271 11.311 18.273 11.488C18.151 15.328 14.941 18.344 11.102 18.222C7.374 18.104 4.403 15.063 4.369 11.33C4.363 8.454 6.149 5.88 8.845 4.882C9.363 4.695 9.663 4.152 9.543 3.613L9.535 3.58C9.403 2.99 9.773 2.406 10.361 2.273C10.409 2.263 10.458 2.255 10.507 2.251C10.777 2.226 11.05 2.213 11.323 2.213C11.661 2.213 12 2.233 12.335 2.269C12.943 2.336 13.491 1.896 13.556 1.289C13.559 1.269 13.561 1.247 13.562 1.227C13.578 0.624 13.12 0.113 12.52 0.063C12.122 0.02 11.722 0 11.323 0C5.07 0 0 5.074 0 11.332C0 17.591 5.07 22.663 11.323 22.663C17.577 22.663 22.646 17.591 22.646 11.332C22.646 10.224 22.423 7.836 21.568 6.574Z" fill="#AAAAAA"/>
<path fill-rule="evenodd" clip-rule="evenodd" d="M15.594 0.859863C16.241 0.859863 16.767 1.38586 16.767 2.03386C16.767 2.68186 16.241 3.20786 15.594 3.20786C14.946 3.20786 14.421 2.68186 14.421 2.03386C14.421 1.38586 14.946 0.859863 15.594 0.859863ZM66.088 10.2589C66.735 10.2589 67.261 10.7839 67.261 11.4329C67.261 12.0809 66.735 12.6069 66.088 12.6069C65.44 12.6069 64.914 12.0809 64.914 11.4329C64.914 10.7829 65.44 10.2589 66.088 10.2589ZM80.902 7.49986C81.018 7.62686 81.077 7.78486 81.077 7.97286C81.077 8.21786 80.987 8.43286 80.81 8.62186L75.793 14.1249H80.08C80.302 14.1249 80.473 14.1809 80.595 14.2919C80.716 14.4029 80.778 14.5519 80.778 14.7409C80.778 14.9619 80.711 15.1309 80.578 15.2479C80.446 15.3639 80.251 15.4219 79.997 15.4219H74.216C74.003 15.4219 73.84 15.3619 73.725 15.2389C73.609 15.1189 73.551 14.9619 73.551 14.7739C73.551 14.5529 73.639 14.3479 73.816 14.1589L78.851 8.60586H74.846C74.624 8.60586 74.453 8.54986 74.331 8.43886C74.211 8.32786 74.149 8.17886 74.149 7.98986C74.149 7.53486 74.404 7.30886 74.913 7.30886H80.413C80.623 7.30886 80.786 7.37186 80.903 7.49886L80.902 7.49986ZM84.369 8.93786C83.969 9.33786 83.714 9.91786 83.604 10.6839H87.89C87.913 9.91886 87.754 9.33686 87.417 8.93786C87.079 8.53786 86.6 8.33986 85.98 8.33986C85.304 8.33986 84.767 8.53886 84.369 8.93786ZM89.179 11.4729C89.061 11.5899 88.905 11.6479 88.704 11.6479H83.537C83.549 12.4679 83.759 13.1029 84.169 13.5529C84.579 14.0009 85.171 14.2259 85.946 14.2259C86.721 14.2259 87.441 14.0039 88.106 13.5599C88.228 13.4819 88.35 13.4439 88.472 13.4439C88.627 13.4439 88.754 13.5049 88.853 13.6269C88.953 13.7489 89.003 13.8919 89.003 14.0589C89.003 14.3149 88.893 14.5299 88.672 14.7079C88.372 14.9509 87.96 15.1509 87.434 15.3059C86.907 15.4619 86.379 15.5389 85.847 15.5389C85.049 15.5389 84.351 15.3779 83.754 15.0569C83.154 14.7349 82.694 14.2749 82.366 13.6769C82.039 13.0769 81.876 12.3859 81.876 11.5989C81.876 10.7219 82.044 9.94386 82.383 9.26186C82.72 8.57986 83.193 8.05186 83.803 7.67486C84.412 7.29786 85.116 7.10786 85.913 7.10786C87.021 7.10786 87.871 7.43786 88.463 8.09786C89.055 8.75786 89.353 9.71386 89.353 10.9659C89.353 11.1879 89.294 11.3569 89.178 11.4729H89.179ZM96.288 7.27486C96.416 7.38586 96.48 7.54686 96.48 7.75686C96.48 8.26686 96.203 8.54386 95.649 8.58786L95.201 8.63786C94.436 8.71586 93.869 8.93786 93.497 9.30286C93.127 9.66886 92.914 10.2079 92.857 10.9169L92.542 14.7069C92.52 14.9839 92.426 15.1869 92.26 15.3139C92.093 15.4419 91.888 15.5059 91.645 15.5059C91.401 15.5059 91.205 15.4389 91.055 15.3059C90.906 15.1729 90.842 14.9739 90.865 14.7069L91.412 7.90686C91.423 7.66286 91.518 7.47486 91.695 7.34086C91.872 7.20886 92.077 7.14286 92.309 7.14286C92.531 7.14286 92.707 7.20586 92.841 7.33286C92.974 7.46086 93.035 7.64586 93.024 7.88986L92.974 8.57286C93.527 7.71886 94.403 7.24786 95.599 7.15886L95.783 7.14286C95.993 7.12086 96.162 7.16486 96.288 7.27486ZM102.456 13.3439C102.866 12.7679 103.073 11.9929 103.073 11.0159C103.073 10.1849 102.88 9.54986 102.499 9.11186C102.117 8.67486 101.57 8.45586 100.863 8.45586C100.086 8.45586 99.493 8.74386 99.083 9.31986C98.675 9.89686 98.47 10.6729 98.47 11.6479C98.47 12.4909 98.661 13.1279 99.042 13.5609C99.425 13.9919 99.975 14.2089 100.695 14.2089C101.461 14.2089 102.047 13.9199 102.456 13.3439ZM98.618 15.0569C98.032 14.7359 97.578 14.2759 97.257 13.6769C96.935 13.0769 96.775 12.3859 96.775 11.5979C96.775 10.6879 96.944 9.89786 97.282 9.22086C97.619 8.54486 98.096 8.02386 98.71 7.65786C99.325 7.29186 100.037 7.10886 100.845 7.10886C101.642 7.10886 102.335 7.27186 102.921 7.59886C103.509 7.92686 103.963 8.38686 104.284 8.97886C104.606 9.57186 104.766 10.2689 104.766 11.0659C104.766 11.9749 104.598 12.7659 104.26 13.4359C103.92 14.1059 103.445 14.6249 102.83 14.9899C102.216 15.3559 101.5 15.5389 100.68 15.5389C99.893 15.5389 99.206 15.3779 98.618 15.0569ZM113.023 8.93786C112.625 9.33786 112.37 9.91786 112.259 10.6839H116.546C116.568 9.91886 116.41 9.33686 116.072 8.93786C115.735 8.53786 115.255 8.33986 114.635 8.33986C113.959 8.33986 113.422 8.53886 113.023 8.93786ZM117.833 11.4729C117.717 11.5899 117.559 11.6479 117.359 11.6479H112.193C112.204 12.4679 112.414 13.1029 112.825 13.5529C113.233 14.0009 113.827 14.2259 114.603 14.2259C115.378 14.2259 116.096 14.0039 116.761 13.5599C116.883 13.4819 117.006 13.4439 117.127 13.4439C117.282 13.4439 117.409 13.5049 117.51 13.6269C117.609 13.7489 117.658 13.8919 117.658 14.0589C117.658 14.3149 117.548 14.5299 117.326 14.7079C117.027 14.9509 116.615 15.1509 116.089 15.3059C115.564 15.4619 115.034 15.5389 114.502 15.5389C113.704 15.5389 113.006 15.3779 112.409 15.0569C111.811 14.7349 111.347 14.2749 111.022 13.6769C110.695 13.0769 110.532 12.3859 110.532 11.5989C110.532 10.7219 110.7 9.94386 111.038 9.26186C111.377 8.57986 111.85 8.05186 112.458 7.67486C113.068 7.29786 113.771 7.10786 114.568 7.10786C115.675 7.10786 116.527 7.43786 117.119 8.09786C117.711 8.75786 118.007 9.71386 118.007 10.9659C118.007 11.1879 117.95 11.3569 117.833 11.4729ZM122.806 5.51286C122.523 5.82286 122.354 6.28286 122.299 6.89286L122.265 7.30886H123.911C124.133 7.30886 124.301 7.36386 124.417 7.47486C124.533 7.58486 124.592 7.73486 124.592 7.92286C124.592 8.37786 124.337 8.60486 123.828 8.60486H122.166L121.684 14.7069C121.673 14.9739 121.582 15.1729 121.411 15.3069C121.238 15.4389 121.037 15.5069 120.804 15.5069C120.571 15.5069 120.378 15.4389 120.222 15.3069C120.067 15.1729 119.995 14.9739 120.007 14.7069L120.488 8.60486H119.508C119.287 8.60486 119.115 8.54986 118.993 8.43886C118.87 8.32786 118.81 8.17886 118.81 7.98986C118.81 7.76886 118.876 7.59986 119.01 7.48286C119.142 7.36586 119.336 7.30886 119.59 7.30886H120.589L120.605 7.09186C120.782 4.96486 121.928 3.83386 124.043 3.70086L124.393 3.68386C124.979 3.65086 125.273 3.84486 125.273 4.26586C125.273 4.47586 125.213 4.63786 125.09 4.74786C124.968 4.85886 124.791 4.92486 124.56 4.94686L124.11 4.97986C123.523 5.02486 123.088 5.20286 122.806 5.51286ZM129.221 5.51286C128.938 5.82286 128.769 6.28286 128.713 6.89286L128.68 7.30886H130.325C130.548 7.30886 130.716 7.36386 130.832 7.47486C130.948 7.58486 131.006 7.73486 131.006 7.92286C131.006 8.37786 130.751 8.60486 130.243 8.60486H128.581L128.099 14.7069C128.088 14.9739 127.997 15.1729 127.825 15.3069C127.653 15.4389 127.451 15.5069 127.218 15.5069C126.986 15.5069 126.792 15.4389 126.637 15.3069C126.482 15.1729 126.41 14.9739 126.421 14.7069L126.903 8.60486H125.923C125.702 8.60486 125.529 8.54986 125.408 8.43886C125.285 8.32786 125.224 8.17886 125.224 7.98986C125.224 7.76886 125.291 7.59986 125.424 7.48286C125.556 7.36586 125.751 7.30886 126.006 7.30886H127.003L127.02 7.09186C127.197 4.96486 128.343 3.83386 130.458 3.70086L130.807 3.68386C131.394 3.65086 131.687 3.84486 131.687 4.26586C131.687 4.47586 131.627 4.63786 131.505 4.74786C131.382 4.85886 131.205 4.92486 130.974 4.94686L130.524 4.97986C129.938 5.02486 129.504 5.20286 129.221 5.51286ZM137.07 13.3439C137.48 12.7679 137.685 11.9929 137.685 11.0159C137.685 10.1849 137.495 9.54986 137.112 9.11186C136.73 8.67486 136.184 8.45586 135.476 8.45586C134.699 8.45586 134.108 8.74386 133.697 9.31986C133.287 9.89686 133.084 10.6729 133.084 11.6479C133.084 12.4909 133.274 13.1279 133.656 13.5609C134.039 13.9919 134.589 14.2089 135.309 14.2089C136.074 14.2089 136.659 13.9199 137.07 13.3439ZM133.232 15.0569C132.645 14.7359 132.192 14.2759 131.87 13.6769C131.55 13.0769 131.388 12.3859 131.388 11.5979C131.388 10.6879 131.558 9.89786 131.895 9.22086C132.232 8.54486 132.709 8.02386 133.325 7.65786C133.938 7.29186 134.651 7.10886 135.458 7.10886C136.256 7.10886 136.948 7.27186 137.535 7.59886C138.123 7.92686 138.575 8.38686 138.898 8.97886C139.219 9.57186 139.38 10.2689 139.38 11.0659C139.38 11.9749 139.21 12.7659 138.873 13.4359C138.535 14.1059 138.058 14.6249 137.443 14.9899C136.83 15.3559 136.113 15.5389 135.293 15.5389C134.506 15.5389 133.82 15.3779 133.233 15.0569H133.232ZM146.317 7.27486C146.445 7.38586 146.509 7.54686 146.509 7.75686C146.509 8.26686 146.231 8.54386 145.679 8.58786L145.229 8.63786C144.466 8.71586 143.898 8.93786 143.526 9.30286C143.156 9.66886 142.943 10.2079 142.887 10.9169L142.571 14.7069C142.549 14.9839 142.455 15.1869 142.29 15.3139C142.122 15.4419 141.918 15.5059 141.675 15.5059C141.43 15.5059 141.235 15.4389 141.083 15.3059C140.935 15.1729 140.871 14.9739 140.894 14.7069L141.442 7.90686C141.453 7.66286 141.547 7.47486 141.725 7.34086C141.901 7.20886 142.106 7.14286 142.338 7.14286C142.56 7.14286 142.737 7.20586 142.871 7.33286C143.003 7.46086 143.065 7.64586 143.052 7.88986L143.003 8.57286C143.556 7.71886 144.431 7.24786 145.629 7.15886L145.811 7.14286C146.021 7.12086 146.191 7.16486 146.317 7.27486ZM150.14 12.4129C150.129 12.4789 150.124 12.5789 150.124 12.7129C150.124 13.2109 150.237 13.5899 150.465 13.8509C150.691 14.1119 151.01 14.2409 151.42 14.2409C151.553 14.2409 151.685 14.2329 151.817 14.2179C151.951 14.1999 152.057 14.1929 152.134 14.1929C152.266 14.1929 152.373 14.2449 152.45 14.3499C152.527 14.4559 152.566 14.6019 152.566 14.7899C152.566 15.0679 152.459 15.2619 152.242 15.3729C152.026 15.4829 151.646 15.5389 151.104 15.5389C150.262 15.5389 149.608 15.3059 149.143 14.8409C148.678 14.3739 148.445 13.7209 148.445 12.8779C148.445 12.7009 148.451 12.5629 148.463 12.4619L148.762 8.60586H147.781C147.559 8.60586 147.388 8.54986 147.266 8.43886C147.144 8.32886 147.083 8.17286 147.083 7.97286C147.083 7.76286 147.15 7.59986 147.283 7.48286C147.416 7.36686 147.609 7.30786 147.863 7.30786H148.861L148.993 5.57886C149.016 5.34686 149.11 5.15886 149.277 5.01286C149.443 4.86986 149.647 4.79786 149.892 4.79786C150.146 4.79786 150.344 4.86986 150.489 5.01286C150.634 5.15886 150.693 5.35286 150.672 5.59586L150.538 7.30786H152.184C152.394 7.30786 152.56 7.36386 152.684 7.47386C152.804 7.58486 152.864 7.73386 152.864 7.92386C152.864 8.37886 152.61 8.60586 152.101 8.60586H150.439L150.14 12.4129ZM164.935 7.82386C165.405 8.30086 165.641 9.00386 165.641 9.93586C165.641 10.1579 165.636 10.3239 165.624 10.4349L165.292 14.7069C165.269 14.9619 165.178 15.1589 165.018 15.2979C164.858 15.4359 164.651 15.5059 164.395 15.5059C164.141 15.5059 163.941 15.4359 163.797 15.2979C163.653 15.1589 163.592 14.9619 163.614 14.7079L163.948 10.5179C163.957 10.4399 163.963 10.3239 163.963 10.1679C163.963 9.03786 163.421 8.47186 162.336 8.47186C161.648 8.47186 161.103 8.67686 160.699 9.08686C160.294 9.49686 160.065 10.0689 160.009 10.7999L159.693 14.7069C159.671 14.9619 159.58 15.1589 159.42 15.2979C159.258 15.4359 159.05 15.5059 158.796 15.5059C158.542 15.5059 158.344 15.4359 158.206 15.2979C158.068 15.1589 158.004 14.9619 158.016 14.7079L158.564 7.90786C158.575 7.67486 158.669 7.48786 158.847 7.34986C159.024 7.21086 159.234 7.14186 159.477 7.14186C159.709 7.14186 159.893 7.20886 160.026 7.34186C160.159 7.47486 160.219 7.65786 160.209 7.88986L160.159 8.47186C160.436 8.03986 160.809 7.70486 161.281 7.46686C161.751 7.22786 162.281 7.10886 162.867 7.10886C163.775 7.10886 164.465 7.34686 164.935 7.82386ZM172.97 13.3439C173.381 12.7679 173.586 11.9929 173.586 11.0159C173.586 10.1849 173.394 9.54986 173.012 9.11186C172.632 8.67486 172.084 8.45586 171.376 8.45586C170.6 8.45586 170.008 8.74386 169.597 9.31986C169.189 9.89686 168.983 10.6729 168.983 11.6479C168.983 12.4909 169.174 13.1279 169.556 13.5609C169.939 13.9919 170.49 14.2089 171.209 14.2089C171.974 14.2089 172.561 13.9199 172.971 13.3439H172.97ZM169.133 15.0569C168.547 14.7359 168.091 14.2759 167.77 13.6769C167.45 13.0769 167.29 12.3859 167.29 11.5979C167.29 10.6879 167.458 9.89786 167.795 9.22086C168.134 8.54486 168.609 8.02386 169.225 7.65786C169.84 7.29186 170.551 7.10886 171.36 7.10886C172.157 7.10886 172.85 7.27186 173.435 7.59886C174.023 7.92686 174.477 8.38686 174.798 8.97886C175.12 9.57186 175.28 10.2689 175.28 11.0659C175.28 11.9749 175.112 12.7659 174.774 13.4359C174.435 14.1059 173.959 14.6249 173.344 14.9899C172.73 15.3559 172.013 15.5389 171.193 15.5389C170.407 15.5389 169.72 15.3779 169.133 15.0569ZM183.704 7.82386C184.174 8.30086 184.41 9.00386 184.41 9.93586C184.41 10.1579 184.404 10.3239 184.393 10.4349L184.061 14.7069C184.038 14.9619 183.946 15.1589 183.787 15.2979C183.627 15.4359 183.418 15.5059 183.163 15.5059C182.909 15.5059 182.71 15.4359 182.565 15.2979C182.421 15.1589 182.361 14.9619 182.382 14.7079L182.715 10.5179C182.725 10.4399 182.731 10.3239 182.731 10.1679C182.731 9.03786 182.189 8.47186 181.104 8.47186C180.417 8.47186 179.872 8.67686 179.467 9.08686C179.062 9.49686 178.834 10.0689 178.777 10.7999L178.462 14.7069C178.44 14.9619 178.348 15.1589 178.188 15.2979C178.028 15.4359 177.819 15.5059 177.564 15.5059C177.309 15.5059 177.113 15.4359 176.975 15.2979C176.836 15.1589 176.772 14.9619 176.784 14.7079L177.331 7.90786C177.343 7.67486 177.438 7.48786 177.614 7.34986C177.792 7.21086 178.002 7.14186 178.245 7.14186C178.478 7.14186 178.661 7.20886 178.795 7.34186C178.928 7.47486 178.988 7.65786 178.977 7.88986L178.927 8.47186C179.203 8.03986 179.578 7.70486 180.048 7.46686C180.518 7.22786 181.048 7.10886 181.635 7.10886C182.543 7.10886 183.233 7.34686 183.704 7.82386ZM192.165 13.3779C192.58 12.8229 192.787 12.0579 192.787 11.0829C192.787 10.2409 192.593 9.59186 192.206 9.13686C191.818 8.68286 191.266 8.45586 190.545 8.45586C189.815 8.45586 189.238 8.73586 188.817 9.29486C188.397 9.85486 188.186 10.6179 188.186 11.5809C188.186 12.4359 188.38 13.0869 188.768 13.5349C189.155 13.9849 189.708 14.2089 190.428 14.2089C191.171 14.2089 191.75 13.9319 192.165 13.3779ZM192.846 7.59086C193.372 7.91286 193.779 8.36986 194.066 8.96286C194.356 9.55586 194.499 10.2459 194.499 11.0329C194.499 11.9199 194.338 12.7039 194.017 13.3859C193.697 14.0679 193.244 14.5979 192.663 14.9739C192.081 15.3499 191.413 15.5379 190.662 15.5379C190.031 15.5379 189.484 15.4059 189.025 15.1399C188.566 14.8739 188.213 14.4969 187.97 14.0089L187.92 14.7069C187.909 14.9619 187.821 15.1589 187.654 15.2979C187.488 15.4359 187.282 15.5059 187.04 15.5059C186.795 15.5059 186.602 15.4359 186.458 15.2979C186.313 15.1589 186.248 14.9619 186.258 14.7079L187.089 4.38186C187.1 4.14886 187.194 3.96186 187.372 3.81686C187.549 3.67286 187.76 3.59986 188.003 3.59986C188.246 3.59986 188.438 3.66686 188.575 3.79986C188.715 3.93286 188.778 4.11586 188.768 4.34886L188.435 8.42186C188.711 8.01186 189.08 7.69186 189.54 7.45786C190 7.22486 190.5 7.10886 191.043 7.10886C191.719 7.10886 192.319 7.26986 192.846 7.59086ZM200.46 13.6769C200.859 13.2669 201.085 12.7399 201.14 12.0969L201.175 11.6319H200.709C199.889 11.6319 199.247 11.6759 198.782 11.7649C198.316 11.8529 197.985 11.9979 197.785 12.1959C197.585 12.3959 197.485 12.6739 197.485 13.0279C197.485 13.4159 197.621 13.7239 197.893 13.9509C198.165 14.1779 198.533 14.2909 198.998 14.2909C199.573 14.2909 200.061 14.0869 200.461 13.6769H200.46ZM202.903 9.96886C202.903 10.1789 202.897 10.3409 202.885 10.4509L202.555 14.7409C202.542 14.9849 202.462 15.1729 202.312 15.3069C202.162 15.4389 201.966 15.5069 201.722 15.5069C201.479 15.5069 201.285 15.4309 201.141 15.2809C200.998 15.1309 200.936 14.9399 200.959 14.7069L200.991 14.1419C200.759 14.5969 200.439 14.9419 200.028 15.1809C199.618 15.4189 199.141 15.5389 198.6 15.5389C197.79 15.5389 197.123 15.3199 196.598 14.8819C196.071 14.4439 195.809 13.8819 195.809 13.1949C195.809 12.5739 195.968 12.0829 196.291 11.7229C196.611 11.3629 197.123 11.0999 197.827 10.9329C198.53 10.7669 199.475 10.6829 200.659 10.6829H201.258L201.291 10.2679C201.335 9.63586 201.223 9.17386 200.959 8.87986C200.694 8.58586 200.261 8.43886 199.663 8.43886C198.931 8.43886 198.123 8.68386 197.237 9.17086C197.137 9.22586 197.027 9.25386 196.905 9.25386C196.739 9.25386 196.601 9.19286 196.489 9.07086C196.379 8.94886 196.323 8.80486 196.323 8.63886C196.323 8.37286 196.462 8.15086 196.739 7.97386C197.137 7.70786 197.61 7.49686 198.159 7.34086C198.707 7.18586 199.264 7.10886 199.829 7.10886C201.877 7.10886 202.903 8.06286 202.903 9.96886ZM211.68 7.82386C212.15 8.30086 212.386 9.00386 212.386 9.93586C212.386 10.1579 212.38 10.3239 212.369 10.4349L212.037 14.7069C212.014 14.9619 211.923 15.1589 211.762 15.2979C211.602 15.4359 211.395 15.5059 211.139 15.5059C210.885 15.5059 210.685 15.4359 210.542 15.2979C210.397 15.1589 210.336 14.9619 210.358 14.7079L210.691 10.5179C210.701 10.4399 210.707 10.3239 210.707 10.1679C210.707 9.03786 210.165 8.47186 209.079 8.47186C208.393 8.47186 207.847 8.67686 207.442 9.08686C207.039 9.49686 206.808 10.0689 206.753 10.7999L206.438 14.7069C206.416 14.9619 206.325 15.1589 206.164 15.2979C206.002 15.4359 205.795 15.5059 205.541 15.5059C205.286 15.5059 205.089 15.4359 204.951 15.2979C204.813 15.1589 204.748 14.9619 204.76 14.7079L205.308 7.90786C205.318 7.67486 205.413 7.48786 205.59 7.34986C205.768 7.21086 205.978 7.14186 206.221 7.14186C206.454 7.14186 206.637 7.20886 206.77 7.34186C206.903 7.47486 206.963 7.65786 206.954 7.88986L206.904 8.47186C207.179 8.03986 207.554 7.70486 208.024 7.46686C208.495 7.22786 209.024 7.10886 209.612 7.10886C210.52 7.10886 211.209 7.34686 211.68 7.82386ZM221.013 14.2419C221.146 14.3739 221.213 14.5349 221.213 14.7239C221.213 14.9239 221.126 15.1059 220.955 15.2729C220.782 15.4399 220.593 15.5229 220.382 15.5229C220.182 15.5229 220.005 15.4399 219.85 15.2729L216.178 11.6309L215.928 14.7239C215.906 14.9799 215.812 15.1739 215.647 15.3059C215.481 15.4399 215.282 15.5059 215.049 15.5059C214.805 15.5059 214.605 15.4339 214.451 15.2889C214.295 15.1449 214.229 14.9459 214.251 14.6909L215.066 4.39886C215.076 4.14386 215.17 3.94986 215.346 3.81586C215.524 3.68386 215.729 3.61586 215.962 3.61586C216.206 3.61586 216.4 3.68586 216.544 3.82486C216.687 3.96386 216.755 4.16486 216.742 4.43186L216.229 10.9319L220.149 7.42386C220.304 7.26986 220.481 7.19186 220.681 7.19186C220.881 7.19186 221.054 7.26686 221.205 7.41686C221.354 7.56686 221.428 7.73486 221.428 7.92386C221.428 8.12286 221.345 8.29986 221.179 8.45586L218.022 11.2329L221.013 14.2419ZM233.78 3.74486C233.872 3.83686 233.91 3.96286 233.894 4.12486L233.584 8.02286C233.561 8.37486 233.393 8.55186 233.078 8.55186C232.933 8.55186 232.822 8.50786 232.746 8.41986C232.67 8.33086 232.637 8.19986 232.654 8.02286L232.848 5.53886L231.712 7.45886C231.635 7.58186 231.558 7.67086 231.482 7.72386C231.405 7.77686 231.312 7.80386 231.205 7.80386C231.106 7.80386 231.023 7.77686 230.959 7.72386C230.893 7.66986 230.834 7.58186 230.781 7.45886L229.93 5.60786L229.735 8.02286C229.727 8.19986 229.677 8.33086 229.585 8.41986C229.493 8.50786 229.371 8.55186 229.218 8.55186C229.072 8.55186 228.961 8.50786 228.884 8.41986C228.808 8.33086 228.774 8.19986 228.782 8.02286L229.092 4.12386C229.107 3.96386 229.166 3.83686 229.27 3.74386C229.373 3.65286 229.493 3.60686 229.631 3.60686C229.831 3.60686 229.983 3.72586 230.091 3.96286L231.286 6.65386L232.906 3.96386C233.052 3.72586 233.229 3.60686 233.436 3.60686C233.573 3.60686 233.687 3.65286 233.779 3.74486H233.78ZM228.493 4.06686C228.493 4.37386 228.313 4.52686 227.954 4.52686H226.828L226.551 8.03386C226.544 8.19486 226.486 8.32186 226.374 8.41386C226.264 8.50586 226.13 8.55186 225.977 8.55186C225.824 8.55186 225.7 8.50586 225.604 8.41386C225.508 8.32186 225.464 8.19486 225.472 8.03386L225.758 4.52686H224.645C224.33 4.52686 224.174 4.38886 224.174 4.11286C224.174 3.80586 224.349 3.65286 224.702 3.65286H228.022C228.337 3.65286 228.493 3.79086 228.493 4.06686Z" fill="#AAAAAA"/>
</svg>
